<svg id="Слой_1" data-name="Слой 1" xmlns="http://www.w3.org/2000/svg" viewBox="0 0 680 238">
  <g>
    <path d="M174.63,129.58v23.15c.11.16-54.71-25.8-54.71-25.8a11.53,11.53,0,0,1-4.41-3.41,12.85,12.85,0,0,1-3.45-8.77V112a12.84,12.84,0,0,1,10.75-12.69h0c.82-.08,1.69-.13,2.63-.16h2.37l.77,0a2.8,2.8,0,0,1,.29,0c6.78.09,25.31,0,25.31,0l0-10.58-42.49-.39a10.08,10.08,0,0,0-10.06,10.07v49.19H80.8l-.33-55.56A24.41,24.41,0,0,1,104.82,67.4h52.67a17.14,17.14,0,0,1,17.09,17.18V97.85A17.14,17.14,0,0,1,157.49,115s-10.73,0-14.5,0C146.68,116.78,174.46,129.58,174.63,129.58Z" style="fill: #ff6224"/>
    <path d="M127.83,99.15h-2.37Q126.59,99.12,127.83,99.15Z" style="fill: #ff6224"/>
    <path d="M156,67.4h-4.53l4.24,0Z" style="fill: #ff6224"/>
    <path d="M206.17,91.88v63.49a24.41,24.41,0,0,1-24.35,24.48h-77c-11.87,0-22.7-10.58-24-21.16.23.06,94.49,0,94.49,0a9.76,9.76,0,0,0,9.39-6.53,10.12,10.12,0,0,0,.61-3.49s.16-79.48.16-80.92v-.07A24.45,24.45,0,0,1,206.17,91.88Z" style="fill: #ff6224"/>
    <path d="M185.45,67.74c0,1.44,0,2.87,0,4.31V67.73Z" style="fill: #ff6224"/>
  </g>
  <g>
    <path d="M252.31,163.43v-14h4.91a5,5,0,0,1,2.36.49,3.23,3.23,0,0,1,1.41,1.32,3.72,3.72,0,0,1,.46,1.86,3.11,3.11,0,0,1-.31,1.47,2.56,2.56,0,0,1-.82,1,3.53,3.53,0,0,1-1.13.52v.14a2.58,2.58,0,0,1,1.31.45,3.18,3.18,0,0,1,1.06,1.17,3.74,3.74,0,0,1,.42,1.84,3.86,3.86,0,0,1-.49,1.92,3.31,3.31,0,0,1-1.48,1.35,5.78,5.78,0,0,1-2.56.49Zm2-7.93H257a2.59,2.59,0,0,0,1.23-.28,2.08,2.08,0,0,0,1.2-1.93,2,2,0,0,0-.59-1.46,2.42,2.42,0,0,0-1.78-.59h-2.77Zm0,6.12h2.92a3,3,0,0,0,2.09-.59,1.94,1.94,0,0,0,.62-1.46,2.34,2.34,0,0,0-1.23-2.1,2.85,2.85,0,0,0-1.41-.33h-3Z" style="fill: #1b1d1a"/>
    <path d="M269.84,163.64a4.29,4.29,0,0,1-4.13-2.61,6.5,6.5,0,0,1-.56-2.79,6.65,6.65,0,0,1,.57-2.83,4.62,4.62,0,0,1,1.63-1.91,4.39,4.39,0,0,1,2.47-.69,4.63,4.63,0,0,1,2,.44,3.69,3.69,0,0,1,1.45,1.23,3.85,3.85,0,0,1,.66,1.85h-1.91a2.42,2.42,0,0,0-.71-1.27,2.13,2.13,0,0,0-1.5-.53,2.34,2.34,0,0,0-1.43.45,2.78,2.78,0,0,0-.95,1.27,4.94,4.94,0,0,0-.35,1.94,5.4,5.4,0,0,0,.34,2,3,3,0,0,0,1,1.29,2.46,2.46,0,0,0,2.45.24,2,2,0,0,0,.77-.62,2.32,2.32,0,0,0,.43-1H274a3.9,3.9,0,0,1-.64,1.82,3.63,3.63,0,0,1-1.41,1.25A4.46,4.46,0,0,1,269.84,163.64Z" style="fill: #1b1d1a"/>
    <path d="M281.79,163.64a4.81,4.81,0,0,1-2.56-.66,4.45,4.45,0,0,1-1.65-1.88,7.24,7.24,0,0,1,0-5.68,4.59,4.59,0,0,1,1.63-1.92,4.34,4.34,0,0,1,2.45-.69,4.94,4.94,0,0,1,1.65.29,4,4,0,0,1,1.43.92,4.33,4.33,0,0,1,1,1.63,7,7,0,0,1,.37,2.43v.72h-8v-1.53h6.08a3.16,3.16,0,0,0-.31-1.43,2.48,2.48,0,0,0-.89-1,2.4,2.4,0,0,0-1.32-.37,2.49,2.49,0,0,0-1.44.42,2.79,2.79,0,0,0-.94,1.1,3.22,3.22,0,0,0-.33,1.45v1.2a4.2,4.2,0,0,0,.35,1.79,2.6,2.6,0,0,0,1,1.12,2.84,2.84,0,0,0,1.5.39,3,3,0,0,0,1-.17,2.17,2.17,0,0,0,.79-.5,2.32,2.32,0,0,0,.51-.83l1.86.35a3.54,3.54,0,0,1-.8,1.49,3.71,3.71,0,0,1-1.44,1A5.19,5.19,0,0,1,281.79,163.64Zm-2.13-12.34a1.09,1.09,0,0,1-.81-.36,1.18,1.18,0,0,1,0-1.68,1.15,1.15,0,0,1,1.63,0,1.23,1.23,0,0,1,0,1.68A1.08,1.08,0,0,1,279.66,151.3Zm3.85,0a1.09,1.09,0,0,1-.81-.36,1.18,1.18,0,0,1,0-1.68,1.1,1.1,0,0,1,.81-.34,1.08,1.08,0,0,1,.82.34,1.23,1.23,0,0,1,0,1.68A1.06,1.06,0,0,1,283.51,151.3Z" style="fill: #1b1d1a"/>
    <path d="M291,163.56a1.24,1.24,0,0,1-.92-.4,1.34,1.34,0,0,1-.39-1,1.3,1.3,0,0,1,.39-.95,1.27,1.27,0,0,1,1.85,0,1.29,1.29,0,0,1,.38.95,1.34,1.34,0,0,1-.18.69,1.41,1.41,0,0,1-.47.5A1.26,1.26,0,0,1,291,163.56Z" style="fill: #1b1d1a"/>
    <path d="M302.49,163.43v-14h4.92a5,5,0,0,1,2.36.49,3.2,3.2,0,0,1,1.4,1.32,3.72,3.72,0,0,1,.47,1.86,3.11,3.11,0,0,1-.31,1.47,2.56,2.56,0,0,1-.82,1,3.53,3.53,0,0,1-1.13.52v.14a2.61,2.61,0,0,1,1.31.45,3.16,3.16,0,0,1,1.05,1.17,3.74,3.74,0,0,1,.42,1.84,3.85,3.85,0,0,1-.48,1.92,3.31,3.31,0,0,1-1.48,1.35,5.78,5.78,0,0,1-2.56.49Zm2-7.93h2.71a2.65,2.65,0,0,0,1.23-.28,2.21,2.21,0,0,0,.87-.76,2.05,2.05,0,0,0,.32-1.17,2,2,0,0,0-.58-1.46,2.43,2.43,0,0,0-1.79-.59h-2.76Zm0,6.12h2.92a3,3,0,0,0,2.08-.59,1.92,1.92,0,0,0,.63-1.46,2.34,2.34,0,0,0-1.23-2.1,2.88,2.88,0,0,0-1.41-.33h-3Z" style="fill: #1b1d1a"/>
    <path d="M320.12,163.64a4.75,4.75,0,0,1-2.55-.66,4.32,4.32,0,0,1-1.65-1.88,7.24,7.24,0,0,1,0-5.68,4.5,4.5,0,0,1,1.62-1.92,4.34,4.34,0,0,1,2.45-.69,4.94,4.94,0,0,1,1.65.29,4,4,0,0,1,1.43.92,4.33,4.33,0,0,1,1,1.63,7,7,0,0,1,.37,2.43v.72h-8v-1.53h6.08a3.16,3.16,0,0,0-.31-1.43,2.53,2.53,0,0,0-.88-1,2.44,2.44,0,0,0-1.33-.37,2.49,2.49,0,0,0-1.44.42,2.79,2.79,0,0,0-.94,1.1,3.22,3.22,0,0,0-.33,1.45v1.2a4.2,4.2,0,0,0,.35,1.79,2.67,2.67,0,0,0,1,1.12,2.84,2.84,0,0,0,1.5.39,3,3,0,0,0,1-.17,2.17,2.17,0,0,0,.79-.5,2.32,2.32,0,0,0,.51-.83l1.86.35a3.54,3.54,0,0,1-.8,1.49,3.75,3.75,0,0,1-1.43,1A5.28,5.28,0,0,1,320.12,163.64Z" style="fill: #1b1d1a"/>
    <path d="M327.41,160.66h2a1.24,1.24,0,0,0,.56,1,2.43,2.43,0,0,0,1.36.35,2.66,2.66,0,0,0,1.44-.38,1.31,1.31,0,0,0,.59-1.18,1.55,1.55,0,0,0-.22-.84,1.57,1.57,0,0,0-.64-.55,2.19,2.19,0,0,0-1-.2H329.9v-1.6h1.64a1.74,1.74,0,0,0,1.24-.4,1.32,1.32,0,0,0,.41-1,1.28,1.28,0,0,0-.44-1,1.74,1.74,0,0,0-1.23-.4,2.27,2.27,0,0,0-1.33.38,1.16,1.16,0,0,0-.55.95h-2a2.59,2.59,0,0,1,.51-1.54,3.26,3.26,0,0,1,1.34-1,4.65,4.65,0,0,1,1.91-.37,4.6,4.6,0,0,1,1.94.37,3,3,0,0,1,1.27,1,2.64,2.64,0,0,1,.45,1.52,2.05,2.05,0,0,1-.5,1.42,2.71,2.71,0,0,1-1.28.79v.11a2,2,0,0,1,1,.37,2.22,2.22,0,0,1,.71.86,2.85,2.85,0,0,1,.25,1.23,2.74,2.74,0,0,1-.5,1.66,3.25,3.25,0,0,1-1.4,1.08,5.08,5.08,0,0,1-2,.38,5.24,5.24,0,0,1-2-.36,3.3,3.3,0,0,1-1.39-1A2.61,2.61,0,0,1,327.41,160.66Z" style="fill: #1b1d1a"/>
    <path d="M337.72,166.45v-4.79h.82a2.69,2.69,0,0,0,.53-.71,5.12,5.12,0,0,0,.38-1,11.77,11.77,0,0,0,.25-1.35c.07-.51.14-1.09.19-1.75l.31-3.92H347v8.72h1.55v4.79h-1.92v-3h-7v3Zm2.91-4.79h4.5v-7H342l-.21,2.17c-.1,1.1-.23,2-.38,2.86A4.89,4.89,0,0,1,340.63,161.66Z" style="fill: #1b1d1a"/>
    <path d="M356.21,163.64a4.81,4.81,0,0,1-2.56-.66A4.45,4.45,0,0,1,352,161.1a7.24,7.24,0,0,1,0-5.68,4.59,4.59,0,0,1,1.63-1.92,4.32,4.32,0,0,1,2.45-.69,4.94,4.94,0,0,1,1.65.29,4,4,0,0,1,1.43.92,4.33,4.33,0,0,1,1,1.63,7,7,0,0,1,.37,2.43v.72h-8v-1.53h6.08a3.3,3.3,0,0,0-.31-1.43,2.48,2.48,0,0,0-.89-1,2.4,2.4,0,0,0-1.32-.37,2.49,2.49,0,0,0-1.44.42,2.79,2.79,0,0,0-.94,1.1,3.22,3.22,0,0,0-.33,1.45v1.2a4.05,4.05,0,0,0,.35,1.79,2.6,2.6,0,0,0,1,1.12,2.84,2.84,0,0,0,1.5.39,3,3,0,0,0,1-.17,2.17,2.17,0,0,0,.79-.5,2.32,2.32,0,0,0,.51-.83l1.85.35a3.41,3.41,0,0,1-.79,1.49,3.71,3.71,0,0,1-1.44,1A5.19,5.19,0,0,1,356.21,163.64Z" style="fill: #1b1d1a"/>
    <path d="M365.38,163.56a1.24,1.24,0,0,1-.92-.4,1.34,1.34,0,0,1-.39-1,1.3,1.3,0,0,1,.39-.95,1.27,1.27,0,0,1,1.85,0,1.29,1.29,0,0,1,.38.95,1.34,1.34,0,0,1-.18.69,1.41,1.41,0,0,1-.47.5A1.26,1.26,0,0,1,365.38,163.56Z" style="fill: #1b1d1a"/>
    <path d="M388.06,154H386a3.29,3.29,0,0,0-.43-1.21,3.69,3.69,0,0,0-.79-.88,3.32,3.32,0,0,0-1-.54,3.88,3.88,0,0,0-3.29.42,4.09,4.09,0,0,0-1.44,1.78,8.06,8.06,0,0,0,0,5.75,4,4,0,0,0,1.45,1.78,3.68,3.68,0,0,0,2.06.6,4,4,0,0,0,1.21-.18,3.32,3.32,0,0,0,1-.54,3.46,3.46,0,0,0,.79-.87,3.38,3.38,0,0,0,.44-1.19h2.05a6,6,0,0,1-.63,1.9,5.31,5.31,0,0,1-2.87,2.45,5.86,5.86,0,0,1-2,.34,5.72,5.72,0,0,1-3.11-.86,5.86,5.86,0,0,1-2.14-2.48,8.57,8.57,0,0,1-.79-3.84,8.78,8.78,0,0,1,.79-3.85,5.92,5.92,0,0,1,2.15-2.47,5.71,5.71,0,0,1,3.1-.86,5.89,5.89,0,0,1,2,.32,5.44,5.44,0,0,1,1.67.92A5.21,5.21,0,0,1,387.4,152,6,6,0,0,1,388.06,154Z" style="fill: #1b1d1a"/>
    <path d="M391.71,167.36V152.94h1.91v1.7h.16a6.06,6.06,0,0,1,.5-.75,2.81,2.81,0,0,1,.89-.76,3.09,3.09,0,0,1,1.5-.32,3.82,3.82,0,0,1,2.18.64,4.29,4.29,0,0,1,1.5,1.85,8,8,0,0,1,0,5.82,4.3,4.3,0,0,1-1.49,1.86,3.71,3.71,0,0,1-2.17.66,3,3,0,0,1-1.49-.33,2.75,2.75,0,0,1-.91-.75,5.6,5.6,0,0,1-.51-.76h-.11v5.56Zm1.92-9.17a5.77,5.77,0,0,0,.3,1.94,3,3,0,0,0,.9,1.3,2.18,2.18,0,0,0,1.42.46,2.24,2.24,0,0,0,1.47-.48,3,3,0,0,0,.89-1.33,5.35,5.35,0,0,0,.31-1.89,5.47,5.47,0,0,0-.3-1.87,2.86,2.86,0,0,0-.89-1.3,2.49,2.49,0,0,0-2.91,0,2.69,2.69,0,0,0-.89,1.28A5.51,5.51,0,0,0,393.63,158.19Z" style="fill: #1b1d1a"/>
    <path d="M407.4,163.66a4,4,0,0,1-1.73-.37,3,3,0,0,1-1.22-1.08,3.19,3.19,0,0,1-.45-1.74,2.89,2.89,0,0,1,.33-1.46,2.36,2.36,0,0,1,.89-.91,4.75,4.75,0,0,1,1.24-.51,13.27,13.27,0,0,1,1.4-.26l1.47-.18a2,2,0,0,0,.82-.23.58.58,0,0,0,.25-.53v0a1.7,1.7,0,0,0-1.91-1.88,2.45,2.45,0,0,0-1.56.45,2.61,2.61,0,0,0-.78,1l-1.84-.44a3.75,3.75,0,0,1,1-1.54,3.79,3.79,0,0,1,1.46-.86,5.54,5.54,0,0,1,1.73-.27,5.86,5.86,0,0,1,1.28.15,3.59,3.59,0,0,1,1.28.53,2.94,2.94,0,0,1,1,1.11,4,4,0,0,1,.38,1.87v7h-1.91V162h-.08a3.22,3.22,0,0,1-.57.78,3.18,3.18,0,0,1-1,.63A3.62,3.62,0,0,1,407.4,163.66Zm.43-1.64a2.78,2.78,0,0,0,1.39-.33,2.3,2.3,0,0,0,1.19-2V158.3a1,1,0,0,1-.4.2c-.2.06-.43.11-.68.16l-.74.11-.6.09a4.53,4.53,0,0,0-1,.25,1.85,1.85,0,0,0-.75.51,1.34,1.34,0,0,0-.28.88,1.32,1.32,0,0,0,.54,1.14A2.26,2.26,0,0,0,407.83,162Z" style="fill: #1b1d1a"/>
    <path d="M415.76,160.66h2a1.19,1.19,0,0,0,.56,1,2.37,2.37,0,0,0,1.35.35,2.66,2.66,0,0,0,1.44-.38,1.3,1.3,0,0,0,.6-1.18,1.55,1.55,0,0,0-.23-.84,1.51,1.51,0,0,0-.64-.55,2.19,2.19,0,0,0-1-.2h-1.64v-1.6h1.64a1.74,1.74,0,0,0,1.24-.4,1.39,1.39,0,0,0,0-2,1.73,1.73,0,0,0-1.22-.4,2.23,2.23,0,0,0-1.33.38,1.17,1.17,0,0,0-.56.95h-2a2.6,2.6,0,0,1,.52-1.54,3.23,3.23,0,0,1,1.33-1,5.22,5.22,0,0,1,3.86,0,3,3,0,0,1,1.26,1,2.64,2.64,0,0,1,.45,1.52,2,2,0,0,1-.49,1.42,2.74,2.74,0,0,1-1.29.79v.11a2,2,0,0,1,1,.37,2.2,2.2,0,0,1,.7.86,2.85,2.85,0,0,1,.26,1.23,2.75,2.75,0,0,1-.51,1.66,3.19,3.19,0,0,1-1.4,1.08,5.08,5.08,0,0,1-2,.38,5.28,5.28,0,0,1-2-.36,3.36,3.36,0,0,1-1.39-1A2.67,2.67,0,0,1,415.76,160.66Z" style="fill: #1b1d1a"/>
    <path d="M428.29,167.36a4,4,0,0,1-.8-.07,3,3,0,0,1-.53-.15l.47-1.68a2.66,2.66,0,0,0,1,.13,1.13,1.13,0,0,0,.74-.32,2.48,2.48,0,0,0,.57-1l.24-.69-3.68-10.63h2.1l2.55,8.14h.1l2.55-8.14h2.1l-4.14,11.89a4.94,4.94,0,0,1-.74,1.39,2.92,2.92,0,0,1-1.06.86A3.35,3.35,0,0,1,428.29,167.36Z" style="fill: #1b1d1a"/>
    <path d="M439.55,163.56a1.21,1.21,0,0,1-.92-.4,1.34,1.34,0,0,1-.39-1,1.3,1.3,0,0,1,.39-.95,1.21,1.21,0,0,1,.92-.4,1.22,1.22,0,0,1,.92.4,1.3,1.3,0,0,1,.39.95,1.34,1.34,0,0,1-.18.69,1.44,1.44,0,0,1-.48.5A1.2,1.2,0,0,1,439.55,163.56Z" style="fill: #1b1d1a"/>
  </g>
  <path d="M378.3,80c-9.46-.09-18.92,0-28.38,0a20.13,20.13,0,0,0-11,3.09c-7.37,4.69-10.51,11.57-10.41,20.33.16,13.7,9.08,22.84,22.53,22.85H378a21,21,0,0,0,13.21-4.22c6.47-4.94,8.91-11.67,8.78-19.77C399.75,89.58,390.81,80.17,378.3,80Zm9.52,35.52H340.5V90.77h47.32Z" style="fill: #1b1d1a"/>
  <polygon points="540.89 80 529.14 97.86 493.63 97.86 493.63 80 481.91 80 481.91 126.31 493.63 126.31 493.63 108.44 529.14 108.44 540.89 126.31 553.36 126.31 538.1 103.15 553.36 80 540.89 80" style="fill: #1b1d1a"/>
  <path d="M323.2,94.2c0-5.68-3.31-14.21-12.34-14.21H251.75v46.25h11.72V108.72l47.39-.32C319.89,108.4,323.2,99.88,323.2,94.2Zm-59.73,3.71V90.56h46.06c.46,0,2,.4,2,3.64s-1.49,3.63-2,3.63Z" style="fill: #1b1d1a"/>
  <path d="M562.62,115.56l59.15.16v10.59H573c-8.73,0-15.52-4-19.18-10.59a23.32,23.32,0,0,1-2.5-7,28.78,28.78,0,0,1-.53-5.27,30.16,30.16,0,0,1,.53-6.13,21.12,21.12,0,0,1,9.73-14.21A19.72,19.72,0,0,1,571.9,80c5.75,0,11.49-.05,17.24-.05h32.63V90.58l-59.15.19Z" style="fill: #1b1d1a"/>
  <polygon points="476.62 80 476.62 126.31 464.9 126.31 464.9 108.44 416.89 108.44 416.89 126.31 405.17 126.31 405.17 80 416.89 80 416.89 97.86 464.9 97.86 464.9 80 476.62 80" style="fill: #1b1d1a"/>
</svg>
