<svg width="120" height="120" viewBox="0 0 120 120" fill="none" xmlns="http://www.w3.org/2000/svg">
<g clip-path="url(#clip0_2602_66857)">
<path d="M101.875 51.0713C100.738 50.9034 100.115 50.469 99.7335 49.2864C99.0848 47.2775 98.2243 45.3241 97.2979 43.4225C96.8101 42.4213 96.8522 41.7104 97.5116 40.8231C99.1945 38.5584 100.783 36.2235 102.343 34.0099C99.0532 30.7308 95.8473 27.5353 92.6141 24.3125C90.269 25.9729 87.861 27.6629 85.4722 29.3798C84.8934 29.7958 84.3856 29.854 83.7071 29.5613C82.1519 28.8904 80.5967 28.0236 78.9605 27.7809C76.3513 27.3937 75.4799 25.9912 75.2961 23.5619C75.1408 21.5105 74.6008 19.4881 74.2396 17.5H68.4068V32.061C83.0233 32.7351 94.4419 44.4799 94.6726 58.9192C94.9074 73.6191 83.3324 85.9698 68.3988 86.6321V102.5H74.2327C74.7466 99.4613 75.2751 96.4704 75.7437 93.4703C75.8596 92.7279 76.2389 92.3924 76.8931 92.1275C79.0198 91.2665 81.1713 90.4435 83.2161 89.4135C84.2734 88.8809 84.9876 88.9554 85.9007 89.6314C88.1397 91.289 90.4491 92.8516 92.542 94.3204C95.8765 91.0551 99.1124 87.8864 102.383 84.6836C100.689 82.2809 99.0037 79.8734 97.2968 77.4811C96.8952 76.9183 96.7555 76.4142 97.0575 75.7219C98.0589 73.426 98.9522 71.0826 99.9778 68.7982C100.186 68.3337 100.738 67.8407 101.223 67.7173C102.555 67.3779 103.937 67.2345 105.298 67.0011C106.886 66.7286 108.471 66.443 110 66.1733V52.4237C107.247 51.9593 104.568 51.469 101.875 51.0713Z" fill="#333333"/>
<path d="M66.1001 20.8389H64.8051C54.8318 20.8389 44.8578 20.9035 34.8855 20.8033C31.4723 20.769 28.7332 22.6434 27.6279 25.8751C26.2333 29.9528 24.6943 33.9811 23.2237 38.033C22.4331 40.2116 21.6555 42.3949 20.8484 44.6419H66.1001V20.8389ZM32.8465 26.7987C32.051 26.8134 31.254 26.7282 31.271 25.7015C31.2866 24.7517 32.0393 24.6636 32.801 24.6619C33.5658 24.6602 34.2997 24.7469 34.3166 25.7101C34.3334 26.6687 33.6245 26.8213 32.8465 26.7987ZM59.1002 26.7579C58.976 26.8664 58.6897 26.7963 58.4774 26.7963C51.6019 26.7975 44.7264 26.7974 37.8509 26.797C37.6737 26.797 37.4364 26.8637 37.3304 26.7756C36.9652 26.4719 36.4564 26.1628 36.3518 25.7643C36.178 25.1023 36.6845 24.7166 37.3391 24.6836C38.1522 24.6425 38.9688 24.6675 39.7839 24.6673C42.5837 24.6664 45.3835 24.6669 48.1833 24.6669C51.5148 24.6669 54.8462 24.6662 58.1777 24.6681C58.4961 24.6683 58.8962 24.5687 59.1146 24.7211C59.4756 24.973 59.9512 25.3949 59.9475 25.7407C59.9439 26.088 59.4408 26.4607 59.1002 26.7579Z" fill="#333333"/>
<path d="M47.9097 58.5029C47.5559 58.5028 47.1231 58.5945 46.8678 58.428C46.5326 58.2095 46.1373 57.7766 46.138 57.4367C46.1388 57.0971 46.5365 56.6664 46.8726 56.4493C47.129 56.2838 47.561 56.3766 47.9149 56.3764C53.5941 56.3737 59.2733 56.3745 64.9525 56.3745H66.121V53.8233C65.6695 53.8233 65.2841 53.8233 64.8988 53.8233C59.2196 53.8233 53.5404 53.8245 47.8612 53.8205C47.5086 53.8203 47.0706 53.9012 46.8245 53.7283C46.4984 53.4992 46.1529 53.0659 46.1341 52.7038C46.1184 52.4009 46.5022 51.9798 46.8171 51.7873C47.0833 51.6246 47.5043 51.6959 47.8569 51.6956C53.5716 51.6917 59.2863 51.6928 65.001 51.6928H66.1036V46.8008H65.1691C49.7998 46.8009 34.4305 46.798 19.0611 46.803C15.2885 46.8042 12.5106 49.6043 12.5059 53.3977C12.4996 58.574 12.5043 63.7504 12.5042 68.9267V72.8846C12.7235 72.9339 12.791 72.9624 12.8585 72.9624C21.8031 72.9672 30.7478 72.9763 39.6923 72.9487C40.0333 72.9476 40.4737 72.6704 40.6972 72.3875C42.0371 70.691 43.3564 68.9762 44.6202 67.2227C45.1716 66.4577 45.7925 66.1378 46.7537 66.1439C52.8231 66.1824 58.8929 66.1634 64.9625 66.1634H66.117V62.761C65.6594 62.761 65.2736 62.761 64.8878 62.761C59.2086 62.761 53.5294 62.7623 47.8502 62.758C47.4979 62.7578 47.0764 62.8265 46.8114 62.6626C46.4977 62.4687 46.1164 62.0452 46.134 61.7427C46.1551 61.3805 46.5028 60.9492 46.8302 60.7216C47.0775 60.5498 47.515 60.6334 47.8678 60.6332C53.5825 60.6295 59.2972 60.6305 65.0119 60.6305H66.1388V58.505H64.9473C59.2681 58.505 53.5889 58.5058 47.9097 58.5029ZM38.1705 65.1005C36.0434 65.1056 33.9164 65.1018 31.7894 65.1018C31.7893 65.0551 31.7891 65.0084 31.7889 64.9618C29.3116 64.9618 26.8031 65.2102 24.3639 64.9052C20.4152 64.4115 17.9652 61.1405 18.205 57.1949C18.4292 53.5061 21.425 50.5561 25.2616 50.4469C28.8746 50.3441 32.4927 50.4201 36.1086 50.4163C36.8967 50.4155 37.3303 50.7688 37.4838 51.576C38.229 55.4945 39.0255 59.4033 39.7648 63.3229C40.0227 64.6906 39.6192 65.097 38.1705 65.1005Z" fill="#333333"/>
<path d="M92.5759 59.7432C92.8133 44.1276 79.6872 34.1403 68.3874 34.2869V44.1012C77.7921 45.0134 82.7764 52.757 82.6364 59.6037C82.4779 67.3529 77.1314 73.0851 68.385 74.5698V84.3892C79.812 84.4082 92.3493 74.6429 92.5759 59.7432Z" fill="#EE4D0E"/>
<path d="M10 83.5429H66.1056V75.1552H10V83.5429Z" fill="#333333"/>
<path d="M80.5472 59.3853C80.6255 52.6088 74.8855 46.456 68.3707 46.3418V72.3183C73.7146 72.2202 80.4552 67.3534 80.5472 59.3853Z" fill="#333333"/>
<path d="M28.6005 85.7699H13.6054C13.6054 89.3034 13.5564 92.737 13.6289 96.168C13.659 97.5893 14.8025 98.5004 16.2823 98.5056C19.4419 98.5167 22.6015 98.5106 25.761 98.5067C27.8244 98.5042 28.7224 97.6027 28.7199 95.5173C28.7162 92.5387 28.6996 89.56 28.6818 86.5814C28.6802 86.3135 28.6293 86.0458 28.6005 85.7699Z" fill="#333333"/>
<path d="M47.0178 68.3042C46.7606 68.3047 46.3999 68.3716 46.2632 68.5455C45.1595 69.9496 44.0981 71.3867 42.9423 72.922H66.1366V68.3689C65.961 68.3359 65.8602 68.3005 65.7594 68.3005C59.5122 68.2965 53.265 68.2926 47.0178 68.3042Z" fill="#333333"/>
<path d="M34.7914 52.5726C31.5985 52.5311 28.4045 52.5227 25.2114 52.5558C22.572 52.5831 20.3594 54.8224 20.2101 57.5408C20.0667 60.1532 22.1893 62.835 24.778 62.9176C28.9919 63.052 33.2134 62.9539 37.5603 62.9539C36.923 59.5957 36.3274 56.3649 35.6651 53.1477C35.6137 52.8981 35.096 52.5765 34.7914 52.5726Z" fill="#333333"/>
</g>
<defs>
<clipPath id="clip0_2602_66857">
<rect width="100" height="85" fill="white" transform="translate(10 17.5)"/>
</clipPath>
</defs>
</svg>
