<svg width="120" height="120" viewBox="0 0 120 120" fill="none" xmlns="http://www.w3.org/2000/svg">
<g clip-path="url(#clip0_2602_66883)">
<path d="M108.858 22.1985C108.855 21.3358 108.839 20.4549 108.672 19.6138C107.508 13.7395 102.859 10.0056 96.7165 10.004C72.2413 9.99747 47.7662 9.99778 23.291 10.0139C22.2911 10.0145 21.2726 10.1096 20.2946 10.314C15.1619 11.3865 11.1139 16.061 11.1201 22.0882C11.1402 41.3305 11.0344 60.573 11 79.8154C10.9983 80.7784 11.1122 81.766 11.3399 82.701C12.6763 88.1877 17.2499 91.7817 22.966 91.811C29.6965 91.8454 36.4273 91.8195 43.158 91.8197H44.4522V98.572C43.2756 98.572 42.2691 98.555 41.2634 98.5752C38.351 98.6338 36.0837 100.908 36.0355 103.816C36.0188 104.826 36.0315 105.838 36.0317 106.848C36.0321 109.337 36.6849 109.996 39.1573 109.996C53.0506 109.996 66.9438 109.996 80.8371 109.996C81.125 109.996 81.4142 110.009 81.7007 109.988C83.1102 109.884 83.9341 109.025 83.9564 107.606C83.9756 106.379 83.9709 105.151 83.9585 103.924C83.9276 100.881 81.6662 98.6137 78.6225 98.5727C77.6259 98.5592 76.6289 98.5705 75.5882 98.5705V91.8197H76.8323C83.419 91.8197 90.0058 91.8338 96.5924 91.8054C97.6632 91.8008 98.7605 91.7251 99.7989 91.4819C105.386 90.1735 109.01 85.5389 109 79.7091C108.968 60.5389 108.914 41.3687 108.858 22.1985ZM59.9622 86.0261C58.3416 86.0107 56.9966 84.6816 56.989 83.088C56.9813 81.4541 58.3668 80.1002 60.0356 80.1109C61.6571 80.1213 62.9811 81.4349 63.0014 83.0535C63.022 84.6944 61.6443 86.042 59.9622 86.0261ZM105.645 73.1451C105.645 73.497 105.615 73.8488 105.596 74.2583H14.3672V73.1277C14.3673 56.1589 14.364 39.1902 14.3695 22.2215C14.371 17.815 16.6302 14.6464 20.582 13.5759C21.4717 13.3349 22.4254 13.2338 23.3497 13.2331C47.7899 13.2152 72.23 13.2159 96.6702 13.2216C101.171 13.2226 104.485 15.7288 105.444 19.8757C105.621 20.6381 105.639 21.4499 105.639 22.2389C105.65 39.2076 105.648 56.1764 105.645 73.1451Z" fill="#333333"/>
<path d="M64.9665 44.7476C64.9709 43.9919 64.5433 43.5745 63.838 43.5846C62.1405 43.6088 60.3644 43.2056 58.9345 44.3994C58.2997 42.7846 57.7708 41.1846 57.0525 39.6753C56.1127 37.7005 54.5023 36.4351 52.3158 36.1695C49.8226 35.8667 47.3089 35.5683 44.8038 35.5662C40.926 35.5628 37.0484 35.8274 33.1699 35.9499C29.7597 36.0576 27.5037 37.7441 26.3139 40.9111C25.8809 42.0637 25.4971 43.2349 25.1912 44.1106C23.9676 43.9166 22.8677 43.6194 21.761 43.591C18.9469 43.5187 18.9457 43.5669 18.971 46.351C18.983 47.6701 19.241 47.9486 20.5419 47.9676C21.7172 47.9848 22.8928 47.9712 24.2687 47.9712C23.8065 48.5643 23.4775 48.9742 23.1617 49.3941C21.8681 51.1134 21.1408 53.0234 21.1678 55.2058C21.1914 57.1182 21.2073 59.0319 21.1606 60.9435C21.1286 62.2502 21.3791 63.3113 22.8641 63.573C22.8641 65.0728 22.853 66.4793 22.8674 67.8856C22.8812 69.2401 23.4912 69.8686 24.8435 69.8973C26.0662 69.9234 27.2899 69.9056 28.5132 69.9034C30.459 69.8998 30.9402 69.4226 30.9493 67.4766C30.9554 66.1608 30.9504 64.845 30.9504 63.5488H53.0419C53.0419 65.0724 53.0262 66.5116 53.0465 67.9502C53.0657 69.2979 53.6117 69.8666 54.9433 69.8957C56.3458 69.9264 57.75 69.9265 59.1525 69.8959C60.4641 69.8672 61.0557 69.2518 61.0672 67.9546C61.0803 66.4805 61.0702 65.0062 61.0702 63.5585C62.4519 63.1351 62.7785 62.7148 62.7839 61.3755C62.7917 59.4268 62.7272 57.4758 62.8007 55.5298C62.8958 53.0114 62.0179 50.8796 60.4732 48.9661C60.2547 48.6955 60.0394 48.4223 59.6807 47.9721C60.577 47.9721 61.2853 47.9624 61.9932 47.9737C65.3969 48.028 64.9479 47.9265 64.9665 44.7476ZM30.1895 40.5324C30.6706 39.8922 31.6444 39.3682 32.4503 39.2717C37.4542 38.6725 42.4812 38.5366 47.5141 38.9107C48.7317 39.0012 49.9487 39.1002 51.166 39.1955C52.6067 39.3083 53.8197 39.9213 54.272 41.3156C54.7975 42.9354 55.0762 44.6383 55.416 46.3145C55.5288 46.8707 55.256 47.154 54.6248 47.1525C46.0671 47.1325 37.5093 47.1321 28.9516 47.1237C28.8848 47.1236 28.818 47.0799 28.6144 47.0086C28.4492 44.6509 28.7764 42.4131 30.1895 40.5324ZM32.0129 55.0485C31.8763 55.3092 31.3119 55.4237 30.9233 55.4572C29.7829 55.5557 28.6362 55.5818 27.7957 55.6218C26.5406 55.777 25.7509 55.4762 25.3697 54.5697C24.9609 53.5975 25.0064 52.5857 25.638 51.706C25.8173 51.4564 26.2579 51.2054 26.5351 51.2471C28.5639 51.5522 30.602 51.9135 31.7906 53.8858C31.9902 54.2169 32.1585 54.7707 32.0129 55.0485ZM44.9952 58.939H42.4103C40.9384 58.9387 39.465 58.9008 37.995 58.9541C37.2197 58.9822 37.0299 58.6824 37.0178 57.9539C36.9666 54.8726 36.9464 54.8729 40.0357 54.873C42.2975 54.873 44.5596 54.8946 46.8209 54.8617C47.6157 54.8501 47.9615 55.043 47.9582 55.9457C47.9471 58.9389 47.9844 58.939 44.9952 58.939ZM57.5252 55.471C56.2741 55.471 55.0224 55.4945 53.772 55.4628C52.928 55.4414 52.5768 54.8931 53.0388 54.1824C53.476 53.5098 54.0199 52.7764 54.6995 52.4231C55.7587 51.8724 56.9597 51.5731 58.1253 51.2593C58.8403 51.0669 59.3388 51.4466 59.6347 52.1429C60.4456 54.0515 59.4574 55.7231 57.5252 55.471Z" fill="#333333"/>
<path d="M83.2852 18.1961C74.3184 18.231 67.1072 25.6134 67.131 34.7338C67.1544 43.6606 74.554 51.0079 83.4905 50.9774C92.5079 50.9467 99.8097 43.6179 99.8223 34.5852C99.835 25.4778 92.4515 18.1603 83.2852 18.1961ZM83.3203 40.3485C80.1306 40.2862 77.6623 37.7041 77.6958 34.4649C77.7289 31.2562 80.3758 28.737 83.6547 28.7933C86.7522 28.8465 89.2579 31.4736 89.2182 34.6265C89.1772 37.8817 86.5691 40.412 83.3203 40.3485ZM90.5765 45.5551C89.9845 44.3461 89.3945 43.1413 88.7794 41.8851C91.7344 39.4416 93.0497 36.3632 92.1999 32.5863C91.348 28.8 88.8223 26.6204 85.098 25.664V21.6064C90.1623 21.8643 95.0811 26.2769 96.2728 31.5884C97.4825 36.9808 95.028 43.1016 90.5765 45.5551Z" fill="#EE4D0E"/>
<path d="M71.722 57.0632C71.937 57.0769 72.1533 57.0701 72.3691 57.0701C79.7769 57.0704 87.1847 57.0709 94.5926 57.0689C94.9156 57.0688 95.2402 57.0619 95.5613 57.03C96.4931 56.9375 97.0342 56.3632 97.047 55.4767C97.0597 54.5933 96.5462 53.9901 95.6119 53.8806C95.2207 53.8347 94.8231 53.8304 94.4284 53.83C90.7605 53.8265 87.0925 53.828 83.4246 53.828C79.8645 53.828 76.3044 53.8278 72.7444 53.8281C72.4207 53.8282 72.0964 53.8177 71.7736 53.8351C70.5323 53.902 69.9138 54.4579 69.9289 55.4795C69.9434 56.4585 70.5397 56.9877 71.722 57.0632Z" fill="#333333"/>
<path d="M95.2326 60.7954C95.0173 60.7856 94.8012 60.7916 94.5855 60.7916C87.1793 60.7915 79.773 60.7907 72.3667 60.7939C71.9723 60.794 71.5686 60.7808 71.1853 60.856C70.3195 61.0261 69.9039 61.5978 69.9325 62.4751C69.9658 63.4959 70.6235 63.9944 71.997 63.9984C75.8439 64.0094 79.6909 64.0022 83.5378 64.0025C84.3647 64.0027 85.1917 64.0029 86.0186 64.0027C89.0746 64.0019 92.1306 64.0159 95.1864 63.9924C96.3425 63.9835 97.0937 63.29 97.0723 62.3591C97.0515 61.4539 96.3389 60.8462 95.2326 60.7954Z" fill="#333333"/>
<path d="M26.4848 23.1628C31.6613 23.1666 36.8379 23.1666 42.0144 23.1629C43.3453 23.162 44.0123 22.6411 44.0413 21.6078C44.0716 20.5263 43.3728 19.9432 42.0128 19.9401C39.4246 19.9341 36.8363 19.9383 34.248 19.9383C31.6597 19.9384 29.0714 19.9342 26.4832 19.9401C25.2146 19.943 24.4543 20.5262 24.4148 21.5023C24.3739 22.5145 25.169 23.1618 26.4848 23.1628Z" fill="#333333"/>
<path d="M26.3142 28.0073C25.1641 28.0154 24.4064 28.7199 24.4154 29.6484C24.4244 30.5863 25.1597 31.2139 26.3433 31.2283C28.0685 31.2493 29.7941 31.2337 31.5195 31.2336C33.2449 31.2336 34.9706 31.2502 36.6957 31.2278C37.8605 31.2127 38.5999 30.5574 38.5894 29.6189C38.5788 28.6779 37.843 28.0143 36.6666 28.0065C33.2159 27.9838 29.7649 27.9833 26.3142 28.0073Z" fill="#333333"/>
<path d="M81.7574 67.7039C78.4491 67.6801 75.1405 67.6791 71.8322 67.7038C70.5723 67.7132 69.9451 68.2804 69.9289 69.2851C69.9119 70.3444 70.5451 70.9049 71.8792 70.9265C73.533 70.9532 75.1875 70.9329 76.8418 70.9329C78.46 70.933 80.0786 70.9514 81.6965 70.9271C82.9498 70.9083 83.7129 70.2575 83.6948 69.2921C83.6774 68.3613 82.9425 67.7124 81.7574 67.7039Z" fill="#333333"/>
</g>
<defs>
<clipPath id="clip0_2602_66883">
<rect width="98" height="100" fill="white" transform="translate(11 10)"/>
</clipPath>
</defs>
</svg>
