<svg id="Слой_1" data-name="Слой 1" xmlns="http://www.w3.org/2000/svg" viewBox="0 0 636 201">
  <g>
    <path d="M136.63,108.58v23.15c.11.16-54.71-25.8-54.71-25.8a11.53,11.53,0,0,1-4.41-3.41,12.85,12.85,0,0,1-3.45-8.77V91A12.84,12.84,0,0,1,84.81,78.31h0c.82-.08,1.69-.13,2.63-.16h2.37l.77,0a2.8,2.8,0,0,1,.29,0c6.78.09,25.31,0,25.31,0l0-10.58-42.49-.39A10.08,10.08,0,0,0,63.63,77.25v49.19H42.8l-.33-55.56A24.41,24.41,0,0,1,66.82,46.4h52.67a17.14,17.14,0,0,1,17.09,17.18V76.85A17.14,17.14,0,0,1,119.49,94s-10.73,0-14.5,0C108.68,95.78,136.46,108.58,136.63,108.58Z" style="fill: #1b1d1a"/>
    <path d="M89.83,78.15H87.46Q88.59,78.12,89.83,78.15Z" style="fill: #1b1d1a"/>
    <path d="M118,46.4h-4.53l4.24,0Z" style="fill: #1b1d1a"/>
    <path d="M168.17,70.88v63.49a24.41,24.41,0,0,1-24.35,24.48h-77c-11.87,0-22.7-10.58-24-21.16.23.06,94.49,0,94.49,0a9.76,9.76,0,0,0,9.39-6.53,10.12,10.12,0,0,0,.61-3.49s.16-79.48.16-80.92v-.07A24.45,24.45,0,0,1,168.17,70.88Z" style="fill: #1b1d1a"/>
    <path d="M147.45,46.74c0,1.44,0,2.87,0,4.31V46.73Z" style="fill: #1b1d1a"/>
  </g>
  <g>
    <path d="M340.3,78.89c-9.46-.09-18.92,0-28.38,0a20.2,20.2,0,0,0-11,3.08c-7.37,4.7-10.51,11.58-10.41,20.34.16,13.7,9.08,22.84,22.53,22.84H340a21,21,0,0,0,13.21-4.21c6.47-4.94,8.91-11.67,8.78-19.77C361.75,88.42,352.81,79,340.3,78.89Zm9.52,35.52H302.5V89.62h47.32Z" style="fill: #1b1d1a"/>
    <polygon points="502.89 78.84 491.14 96.71 455.63 96.71 455.63 78.84 443.91 78.84 443.91 125.15 455.63 125.15 455.63 107.29 491.14 107.29 502.89 125.15 515.36 125.15 500.1 102 515.36 78.84 502.89 78.84" style="fill: #1b1d1a"/>
    <path d="M285.2,93.05c0-5.68-3.31-14.21-12.34-14.21H213.75v46.25h11.72V107.56l47.39-.31C281.89,107.25,285.2,98.73,285.2,93.05Zm-59.73,3.71V89.41h46.06c.46,0,2,.4,2,3.64s-1.49,3.63-2,3.63Z" style="fill: #1b1d1a"/>
    <path d="M524.62,114.41l59.15.16v10.58H535c-8.73,0-15.52-4-19.18-10.58a23.42,23.42,0,0,1-2.5-7,28.78,28.78,0,0,1-.53-5.27,30.16,30.16,0,0,1,.53-6.13A21.12,21.12,0,0,1,523.06,82a19.64,19.64,0,0,1,10.84-3.08c5.75,0,11.49,0,17.24,0h32.63V89.43l-59.15.19Z" style="fill: #1b1d1a"/>
    <polygon points="438.62 78.84 438.62 125.15 426.9 125.15 426.9 107.29 378.89 107.29 378.89 125.15 367.17 125.15 367.17 78.84 378.89 78.84 378.89 96.7 426.9 96.7 426.9 78.84 438.62 78.84" style="fill: #1b1d1a"/>
  </g>
</svg>
