<svg id="Слой_1" data-name="Слой 1" xmlns="http://www.w3.org/2000/svg" viewBox="0 0 430 294">
  <path d="M150.39,178c-9.27-.09-18.54,0-27.81,0a19.78,19.78,0,0,0-10.78,3c-7.22,4.6-10.31,11.34-10.2,19.93.16,13.42,8.89,22.38,22.08,22.39h26.39A20.66,20.66,0,0,0,163,219.16c6.34-4.85,8.73-11.44,8.6-19.38C171.41,187.29,162.65,178.07,150.39,178Zm9.33,34.8H113.35V188.46h46.37Z" style="fill: #fff"/>
  <polygon points="309.73 177.9 298.21 195.41 263.42 195.41 263.42 177.9 251.93 177.9 251.93 223.29 263.42 223.29 263.42 205.78 298.21 205.78 309.73 223.29 321.96 223.29 307 200.59 321.96 177.9 309.73 177.9" style="fill: #fff"/>
  <path d="M96.39,191.82c0-5.57-3.25-13.92-12.09-13.92H26.37v45.32H37.85V206.05l46.45-.31C93.14,205.74,96.39,197.39,96.39,191.82Zm-58.54,3.64v-7.2H83c.45,0,1.91.39,1.91,3.56s-1.46,3.56-1.91,3.56Z" style="fill: #fff"/>
  <path d="M331,212.76l58,.15v10.38H341.21c-8.55,0-15.21-3.89-18.8-10.38a23.32,23.32,0,0,1-2.45-6.85,30.39,30.39,0,0,1,0-11.17A20.69,20.69,0,0,1,329.5,181a19.21,19.21,0,0,1,10.62-3c5.63,0,11.27,0,16.89,0h32v10.37l-58,.19Z" style="fill: #fff"/>
  <g>
    <path d="M116.28,259.05v-13.7h4.82a5,5,0,0,1,2.32.48,3.23,3.23,0,0,1,1.37,1.29,3.71,3.71,0,0,1,.46,1.83,3,3,0,0,1-.31,1.44,2.45,2.45,0,0,1-.8.94,3.5,3.5,0,0,1-1.11.51V252a2.51,2.51,0,0,1,1.28.43,3.14,3.14,0,0,1,1,1.15,4.09,4.09,0,0,1-.06,3.69,3.25,3.25,0,0,1-1.46,1.32,5.7,5.7,0,0,1-2.51.48Zm2-7.77h2.66a2.65,2.65,0,0,0,1.2-.27,2.14,2.14,0,0,0,.85-.75,2,2,0,0,0,.32-1.15,1.94,1.94,0,0,0-.57-1.42,2.35,2.35,0,0,0-1.75-.58h-2.71Zm0,6h2.86a3,3,0,0,0,2-.57,1.91,1.91,0,0,0,.62-1.44,2.35,2.35,0,0,0-1.21-2.06,2.87,2.87,0,0,0-1.38-.32h-2.93Z" style="fill: #fff"/>
    <path d="M133.46,259.26a4.33,4.33,0,0,1-2.46-.68,4.46,4.46,0,0,1-1.58-1.87,7.12,7.12,0,0,1,0-5.51,4.47,4.47,0,0,1,1.6-1.88,4.29,4.29,0,0,1,2.42-.68,4.49,4.49,0,0,1,2,.44,3.61,3.61,0,0,1,2.06,3h-1.86a2.43,2.43,0,0,0-.71-1.25,2,2,0,0,0-1.46-.52,2.34,2.34,0,0,0-1.41.44,2.83,2.83,0,0,0-.93,1.24,5.06,5.06,0,0,0-.33,1.91,5.4,5.4,0,0,0,.32,1.94,2.89,2.89,0,0,0,.93,1.26,2.45,2.45,0,0,0,2.41.24,1.93,1.93,0,0,0,.75-.61,2.37,2.37,0,0,0,.43-.95h1.86a3.72,3.72,0,0,1-.62,1.78,3.53,3.53,0,0,1-1.39,1.23A4.38,4.38,0,0,1,133.46,259.26Z" style="fill: #fff"/>
    <path d="M145.18,259.26a4.71,4.71,0,0,1-2.51-.65,4.32,4.32,0,0,1-1.61-1.84,7.09,7.09,0,0,1,0-5.57,4.52,4.52,0,0,1,1.59-1.88,4.25,4.25,0,0,1,2.4-.68,4.67,4.67,0,0,1,1.61.29,3.88,3.88,0,0,1,1.41.91,4.21,4.21,0,0,1,1,1.59,6.93,6.93,0,0,1,.36,2.38v.71h-7.84V253h6a3,3,0,0,0-.31-1.4,2.38,2.38,0,0,0-.86-1,2.61,2.61,0,0,0-2.71.06,2.65,2.65,0,0,0-.92,1.07,3.13,3.13,0,0,0-.33,1.43v1.17a4,4,0,0,0,.35,1.75,2.57,2.57,0,0,0,1,1.1,2.82,2.82,0,0,0,1.47.38,2.91,2.91,0,0,0,1-.16,2.09,2.09,0,0,0,.77-.5,2,2,0,0,0,.5-.81l1.82.35a3.63,3.63,0,0,1-.78,1.46,3.78,3.78,0,0,1-1.41,1A5,5,0,0,1,145.18,259.26Zm-2.09-12.09a1.07,1.07,0,0,1-.8-.36,1.16,1.16,0,0,1,0-1.64,1.08,1.08,0,0,1,.8-.34,1,1,0,0,1,.8.34,1.18,1.18,0,0,1,0,1.64A1,1,0,0,1,143.09,247.17Zm3.77,0a1,1,0,0,1-.79-.36,1.16,1.16,0,0,1,0-1.64,1.06,1.06,0,0,1,.79-.34,1.07,1.07,0,0,1,.81.34,1.21,1.21,0,0,1,0,1.64A1.06,1.06,0,0,1,146.86,247.17Z" style="fill: #fff"/>
    <path d="M154.17,259.18a1.24,1.24,0,0,1-.91-.39,1.39,1.39,0,0,1,0-1.89,1.24,1.24,0,0,1,.91-.39,1.2,1.2,0,0,1,.9.39,1.28,1.28,0,0,1,.38.94,1.31,1.31,0,0,1-.64,1.16A1.19,1.19,0,0,1,154.17,259.18Z" style="fill: #fff"/>
    <path d="M165.47,259.05v-13.7h4.82a4.94,4.94,0,0,1,2.31.48,3.32,3.32,0,0,1,1.38,1.29,3.7,3.7,0,0,1,.45,1.83,3.13,3.13,0,0,1-.3,1.44,2.48,2.48,0,0,1-.81.94,3.35,3.35,0,0,1-1.1.51V252a2.57,2.57,0,0,1,1.28.43,3.12,3.12,0,0,1,1,1.15,4,4,0,0,1-.06,3.69,3.23,3.23,0,0,1-1.45,1.32,5.73,5.73,0,0,1-2.51.48Zm2-7.77h2.66a2.66,2.66,0,0,0,1.21-.27,2.2,2.2,0,0,0,.85-.75,2.07,2.07,0,0,0,.32-1.15,1.94,1.94,0,0,0-.57-1.42,2.38,2.38,0,0,0-1.76-.58h-2.71Zm0,6h2.87a3,3,0,0,0,2-.57,1.9,1.9,0,0,0,.61-1.44,2.32,2.32,0,0,0-.31-1.19,2.35,2.35,0,0,0-.9-.87,2.8,2.8,0,0,0-1.37-.32h-2.94Z" style="fill: #fff"/>
    <path d="M182.75,259.26a4.71,4.71,0,0,1-2.51-.65,4.28,4.28,0,0,1-1.62-1.84,7.09,7.09,0,0,1,0-5.57,4.52,4.52,0,0,1,1.59-1.88,4.3,4.3,0,0,1,2.4-.68,4.69,4.69,0,0,1,1.62.29,4,4,0,0,1,1.41.91,4.34,4.34,0,0,1,1,1.59,6.93,6.93,0,0,1,.36,2.38v.71h-7.84V253h6a3.14,3.14,0,0,0-.31-1.4,2.49,2.49,0,0,0-3.57-.91,2.75,2.75,0,0,0-.93,1.07,3.26,3.26,0,0,0-.32,1.43v1.17a3.87,3.87,0,0,0,.35,1.75,2.51,2.51,0,0,0,1,1.1,2.82,2.82,0,0,0,1.47.38,2.86,2.86,0,0,0,1-.16,2.13,2.13,0,0,0,.78-.5,2.06,2.06,0,0,0,.5-.81l1.82.35a3.63,3.63,0,0,1-.78,1.46,4,4,0,0,1-1.41,1A5,5,0,0,1,182.75,259.26Z" style="fill: #fff"/>
    <path d="M189.89,256.34h2a1.21,1.21,0,0,0,.55,1,2.31,2.31,0,0,0,1.32.34,2.57,2.57,0,0,0,1.42-.37,1.27,1.27,0,0,0,.58-1.16,1.5,1.5,0,0,0-.22-.82,1.55,1.55,0,0,0-.62-.54,2.18,2.18,0,0,0-.95-.19h-1.6V253h1.6a1.75,1.75,0,0,0,1.22-.38,1.4,1.4,0,0,0,0-2,1.78,1.78,0,0,0-1.2-.38,2.27,2.27,0,0,0-1.31.36,1.19,1.19,0,0,0-.54.94h-1.94a2.56,2.56,0,0,1,.5-1.51,3.19,3.19,0,0,1,1.31-1,4.67,4.67,0,0,1,1.88-.37,4.6,4.6,0,0,1,1.9.37,2.94,2.94,0,0,1,1.24,1,2.54,2.54,0,0,1,.44,1.49,2,2,0,0,1-.48,1.39,2.61,2.61,0,0,1-1.26.77v.11a2,2,0,0,1,1,.36,2.13,2.13,0,0,1,.69.85,3,3,0,0,1-.24,2.83,3.16,3.16,0,0,1-1.38,1.06,5.53,5.53,0,0,1-4,0,3.16,3.16,0,0,1-1.37-1A2.66,2.66,0,0,1,189.89,256.34Z" style="fill: #fff"/>
    <path d="M200,262v-4.7h.8a2.69,2.69,0,0,0,.53-.7,4.93,4.93,0,0,0,.36-1,11,11,0,0,0,.26-1.32c.06-.5.12-1.07.18-1.72l.3-3.83h6.71v8.54h1.51V262h-1.87v-3h-6.88v3Zm2.86-4.7h4.4v-6.83h-3.11l-.2,2.12c-.1,1.08-.22,2-.37,2.81A5,5,0,0,1,202.85,257.32Z" style="fill: #fff"/>
    <path d="M218.11,259.26a4.68,4.68,0,0,1-2.5-.65,4.28,4.28,0,0,1-1.62-1.84,7.09,7.09,0,0,1,0-5.57,4.52,4.52,0,0,1,1.59-1.88,4.25,4.25,0,0,1,2.4-.68,4.69,4.69,0,0,1,1.62.29,3.85,3.85,0,0,1,1.4.91,4.23,4.23,0,0,1,1,1.59,7,7,0,0,1,.35,2.38v.71h-7.83V253h6a3.13,3.13,0,0,0-.3-1.4,2.48,2.48,0,0,0-.87-1,2.61,2.61,0,0,0-2.71.06,2.65,2.65,0,0,0-.92,1.07,3.13,3.13,0,0,0-.33,1.43v1.17a3.87,3.87,0,0,0,.36,1.75,2.49,2.49,0,0,0,1,1.1,2.82,2.82,0,0,0,1.47.38,2.87,2.87,0,0,0,1-.16,2.13,2.13,0,0,0,.78-.5,2.19,2.19,0,0,0,.5-.81l1.81.35a3.4,3.4,0,0,1-.78,1.46,3.82,3.82,0,0,1-1.4,1A5.11,5.11,0,0,1,218.11,259.26Z" style="fill: #fff"/>
    <path d="M227.1,259.18a1.2,1.2,0,0,1-.9-.39,1.37,1.37,0,0,1,0-1.89,1.2,1.2,0,0,1,.9-.39,1.23,1.23,0,0,1,.91.39,1.36,1.36,0,0,1,.2,1.62,1.41,1.41,0,0,1-.46.48A1.22,1.22,0,0,1,227.1,259.18Z" style="fill: #fff"/>
    <path d="M249.32,249.81h-2a3.32,3.32,0,0,0-.43-1.18,3.19,3.19,0,0,0-.77-.86,3.12,3.12,0,0,0-1-.54,3.85,3.85,0,0,0-1.19-.18,3.56,3.56,0,0,0-2,.6,4,4,0,0,0-1.41,1.74,7.91,7.91,0,0,0,0,5.64,4,4,0,0,0,1.41,1.74,3.66,3.66,0,0,0,2,.59,3.83,3.83,0,0,0,1.18-.18,3.54,3.54,0,0,0,1-.53,3.15,3.15,0,0,0,.77-.85,3.29,3.29,0,0,0,.44-1.16h2a5.46,5.46,0,0,1-.62,1.85,4.9,4.9,0,0,1-1.17,1.46,5.41,5.41,0,0,1-1.63,1,5.93,5.93,0,0,1-2,.33,5.58,5.58,0,0,1-3-.84,5.83,5.83,0,0,1-2.1-2.43,9.61,9.61,0,0,1,0-7.54,5.82,5.82,0,0,1,2.11-2.42,5.57,5.57,0,0,1,3-.84,6,6,0,0,1,2,.31,5.06,5.06,0,0,1,2.83,2.37A5.66,5.66,0,0,1,249.32,249.81Z" style="fill: #fff"/>
    <path d="M252.9,262.91V248.78h1.87v1.66h.17a5.62,5.62,0,0,1,.48-.74,2.79,2.79,0,0,1,.87-.74,3,3,0,0,1,1.48-.32,3.75,3.75,0,0,1,2.13.63,4.27,4.27,0,0,1,1.47,1.82,7.79,7.79,0,0,1,0,5.7,4.27,4.27,0,0,1-1.46,1.83,3.71,3.71,0,0,1-2.12.64,3,3,0,0,1-1.47-.32,2.75,2.75,0,0,1-.89-.73,6.63,6.63,0,0,1-.49-.75h-.12v5.45Zm1.88-9a5.53,5.53,0,0,0,.3,1.9,2.77,2.77,0,0,0,.88,1.27,2.12,2.12,0,0,0,1.39.46,2.16,2.16,0,0,0,1.44-.48,2.92,2.92,0,0,0,.88-1.3,5.4,5.4,0,0,0,.3-1.85,5.49,5.49,0,0,0-.29-1.83,2.85,2.85,0,0,0-.88-1.28,2.23,2.23,0,0,0-1.45-.47,2.2,2.2,0,0,0-1.4.45,2.67,2.67,0,0,0-.87,1.25A5.37,5.37,0,0,0,254.78,253.92Z" style="fill: #fff"/>
    <path d="M268.28,259.28a3.88,3.88,0,0,1-1.69-.36,2.88,2.88,0,0,1-1.2-1.06,3.2,3.2,0,0,1-.44-1.71,2.88,2.88,0,0,1,.32-1.43,2.4,2.4,0,0,1,.87-.89,4.6,4.6,0,0,1,1.22-.5,12.69,12.69,0,0,1,1.37-.25l1.44-.18a1.82,1.82,0,0,0,.8-.23.56.56,0,0,0,.25-.52v-.05a1.68,1.68,0,0,0-1.87-1.84,2.3,2.3,0,0,0-2.29,1.44l-1.81-.43a3.75,3.75,0,0,1,.94-1.52,4,4,0,0,1,1.43-.84,5.36,5.36,0,0,1,1.7-.27,5.76,5.76,0,0,1,1.26.15,3.56,3.56,0,0,1,1.24.52,2.93,2.93,0,0,1,1,1.09,4,4,0,0,1,.37,1.83v6.82h-1.88v-1.4h-.07a2.9,2.9,0,0,1-1.52,1.38A3.47,3.47,0,0,1,268.28,259.28Zm.42-1.6a2.66,2.66,0,0,0,1.36-.33,2.28,2.28,0,0,0,1.17-2V254a.86.86,0,0,1-.4.2,6.42,6.42,0,0,1-.66.16l-.73.11-.59.08a4.27,4.27,0,0,0-1,.25,1.8,1.8,0,0,0-.74.5,1.28,1.28,0,0,0-.27.86,1.3,1.3,0,0,0,.53,1.12A2.26,2.26,0,0,0,268.7,257.68Z" style="fill: #fff"/>
    <path d="M276.47,256.34h2a1.18,1.18,0,0,0,.55,1,2.31,2.31,0,0,0,1.32.34,2.57,2.57,0,0,0,1.42-.37,1.27,1.27,0,0,0,.58-1.16,1.5,1.5,0,0,0-.22-.82,1.55,1.55,0,0,0-.62-.54,2.18,2.18,0,0,0-1-.19h-1.61V253h1.61a1.75,1.75,0,0,0,1.22-.38,1.4,1.4,0,0,0,0-2,1.78,1.78,0,0,0-1.2-.38,2.25,2.25,0,0,0-1.31.36,1.17,1.17,0,0,0-.54.94h-1.94a2.56,2.56,0,0,1,.5-1.51,3.19,3.19,0,0,1,1.31-1,5,5,0,0,1,3.78,0,3,3,0,0,1,1.24,1,2.54,2.54,0,0,1,.44,1.49,2,2,0,0,1-.48,1.39,2.71,2.71,0,0,1-1.26.77v.11a2,2,0,0,1,1,.36,2.22,2.22,0,0,1,.69.85,3,3,0,0,1-.24,2.83,3.22,3.22,0,0,1-1.38,1.06,5.53,5.53,0,0,1-3.95,0,3.16,3.16,0,0,1-1.37-1A2.66,2.66,0,0,1,276.47,256.34Z" style="fill: #fff"/>
    <path d="M288.76,262.91a4.74,4.74,0,0,1-.79-.07,2.87,2.87,0,0,1-.52-.15l.46-1.64a3,3,0,0,0,.94.13,1.09,1.09,0,0,0,.72-.33,2.45,2.45,0,0,0,.57-1l.23-.68-3.6-10.41h2.05l2.5,8h.1l2.5-8H296l-4.07,11.65a4.6,4.6,0,0,1-.71,1.36,3,3,0,0,1-1,.84A3.43,3.43,0,0,1,288.76,262.91Z" style="fill: #fff"/>
    <path d="M299.79,259.18a1.23,1.23,0,0,1-.91-.39,1.37,1.37,0,0,1,0-1.89,1.23,1.23,0,0,1,.91-.39,1.2,1.2,0,0,1,.9.39,1.36,1.36,0,0,1-.26,2.1A1.19,1.19,0,0,1,299.79,259.18Z" style="fill: #fff"/>
  </g>
  <g>
    <path d="M221,22.3h-4.44l4.16,0Z" style="fill: #fff"/>
    <path d="M249.82,22.64c0,1.4,0,2.81,0,4.21V22.62Z" style="fill: #fff"/>
    <g>
      <path d="M239.21,83.24v22.68c.11.17-53.62-25.28-53.62-25.28a11.31,11.31,0,0,1-4.32-3.34,12.57,12.57,0,0,1-3.38-8.6V66a12.57,12.57,0,0,1,10.54-12.43h0c.8-.09,1.65-.13,2.57-.16h3.37c6.64.08,24.8,0,24.8,0l0-10.37-41.64-.38a9.87,9.87,0,0,0-9.86,9.86v48.21H147.25l-.32-54.45a23.94,23.94,0,0,1,23.86-24h51.62a16.8,16.8,0,0,1,16.75,16.84v13A16.8,16.8,0,0,1,222.41,69H208.2C211.82,70.69,239,83.24,239.21,83.24Z" style="fill: #fff"/>
      <path d="M193.34,53.42H191C191.76,53.4,192.53,53.4,193.34,53.42Z" style="fill: #fff"/>
      <path d="M221,22.3h-4.44l4.16,0Z" style="fill: #fff"/>
      <path d="M270.12,46.29v62.23a23.93,23.93,0,0,1-23.86,24H170.79c-11.63,0-22.25-10.36-23.54-20.73.23,0,92.61,0,92.61,0a9.56,9.56,0,0,0,9.2-6.4,10,10,0,0,0,.6-3.42s.15-77.9.16-79.3v-.07A24,24,0,0,1,270.12,46.29Z" style="fill: #fff"/>
      <path d="M249.82,22.64c0,1.4,0,2.81,0,4.21V22.62Z" style="fill: #fff"/>
    </g>
  </g>
  <polygon points="246.75 177.9 246.75 223.29 235.26 223.29 235.26 205.78 188.21 205.78 188.21 223.29 176.72 223.29 176.72 177.9 188.21 177.9 188.21 195.41 235.26 195.41 235.26 177.9 246.75 177.9" style="fill: #fff"/>
</svg>
