<svg width="120" height="120" viewBox="0 0 120 120" fill="none" xmlns="http://www.w3.org/2000/svg">
<g clip-path="url(#clip0_2602_66870)">
<path d="M108.89 66.5658C107.83 65.5512 106.86 64.5527 107.376 62.7427C105.463 62.7427 103.778 62.7627 102.094 62.7375C100.104 62.7077 98.4591 61.3134 98.0662 59.3706C97.4346 56.2486 99.3532 53.2479 102.621 52.3961C103.801 52.0884 105.039 52.0027 106.36 51.7989C106.102 51.4232 105.891 51.0366 105.607 50.7133C103.149 47.9103 100.685 45.1117 98.2059 42.327C97.1875 41.1831 95.8925 40.4582 94.3962 40.1828C92.2641 39.7904 90.1275 39.2954 87.974 39.1708C81.5014 38.7962 75.0221 38.4679 68.541 38.3302C60.6161 38.1619 52.9176 39.4765 45.7954 43.0796C41.1298 45.4399 36.6397 48.1519 32.1119 50.7771C30.5537 51.6805 28.9357 52.1894 27.1603 52.4058C25.3275 52.6292 23.5158 53.0254 21.7335 53.3392C21.5453 57.661 20.1271 61.3799 17.6432 64.6779C16.0101 66.8462 13.8761 68.0921 11.0338 67.7265C10.7698 67.6925 10.4976 67.722 10.1817 67.722C10.1817 68.9665 10.0773 70.1763 10.2262 71.354C10.2996 71.9342 10.746 72.5541 11.1903 72.9835C12.2993 74.0554 13.499 75.034 14.6735 76.037C14.9258 76.2525 15.2182 76.5593 15.5042 76.5731C16.7349 76.6326 17.9701 76.5985 19.2116 76.5985C18.4851 68.4189 24.1932 63.8185 29.2461 63.1628C32.2206 62.7768 35.0364 63.336 37.5142 65.088C41.4668 67.8828 43.011 71.8118 42.5807 76.5302H57.4233C57.8362 72.025 58.728 67.689 60.1505 63.462C60.9028 61.2262 62.2425 60.8012 64.2628 61.9643C65.7966 62.8474 67.4291 63.6623 69.1211 64.1457C72.615 65.1439 76.0998 64.3294 79.5499 63.6405C84.1433 62.7232 88.7068 61.62 93.4521 61.8818C96.0844 62.027 98.5771 62.5308 100.674 64.2692C103.38 66.5122 104.529 69.5663 105.147 72.8887C105.336 73.9075 105.455 74.9393 105.607 75.9652C105.69 75.9939 105.773 76.0226 105.856 76.0514C105.946 75.9055 106.033 75.7577 106.127 75.6142C106.871 74.4788 107.483 73.2244 108.904 72.7265C109.104 72.6565 109.258 72.401 109.391 72.2028C110.255 70.9127 110.012 67.6386 108.89 66.5658ZM72.2768 46.8244C71.8204 48.9782 71.3904 51.1377 70.9534 53.2956C70.4521 55.7706 69.2633 56.7484 66.7245 56.7504C62.6181 56.7536 58.5117 56.7513 54.4052 56.7513C50.1953 56.7513 45.9853 56.7539 41.7754 56.7499C40.1663 56.7484 39.1804 56.1571 38.7186 54.9398C38.2652 53.7447 38.6141 52.5637 39.7738 51.5421C44.751 47.1575 50.5888 44.5068 57.0063 43.0483C60.7169 42.205 64.4844 41.8292 68.2864 41.8341C71.4676 41.8383 72.9368 43.7091 72.2768 46.8244ZM94.4322 52.0435C93.1161 53.3139 91.8323 54.631 90.4087 55.7708C89.7587 56.2913 88.8139 56.6867 87.9919 56.7075C84.1632 56.8042 80.3306 56.7671 76.4996 56.7436C74.2439 56.7298 72.7355 54.8571 73.1082 52.6591C73.5169 50.2491 73.9029 47.8347 74.2605 45.4166C74.5893 43.1931 75.9713 42.0093 78.2039 42.0415C80.2729 42.0713 82.3427 42.0478 84.4122 42.0478L86.3393 42.0408L90.7675 42.1474C93.5386 42.2318 95.0275 43.8977 95.4288 46.6585C95.503 47.1696 95.5778 47.6813 95.6746 48.1884C95.9639 49.7028 95.5242 50.9893 94.4322 52.0435Z" fill="#333333"/>
<path d="M94.5827 80.7391C94.366 79.8211 93.7691 79.0817 92.8533 79.0542C92.1094 79.0319 91.341 79.4477 90.6068 79.73C90.4023 79.8087 90.281 80.1034 90.0086 80.4373C90.0086 79.039 90.0379 77.8327 89.9996 76.6285C89.9674 75.6165 89.4791 74.8285 88.537 74.4309C87.6831 74.0706 86.8401 74.1987 86.1148 74.8045C85.8571 75.0198 85.6506 75.2964 85.2768 75.7004C85.2768 74.9152 85.2788 74.3291 85.276 73.743C85.2746 73.4324 85.279 73.1207 85.2565 72.8113C85.1624 71.5212 84.2255 70.6069 82.9902 70.5886C81.641 70.5685 80.6405 71.4631 80.5408 72.8647C80.4796 73.7248 80.5295 74.5927 80.5295 75.4572C79.6172 74.4366 78.6619 74.0197 77.4539 74.3674C76.46 74.6536 75.8789 75.633 75.8251 76.9927C75.8142 77.2686 75.8209 77.5451 75.8209 77.8213C75.8207 81.7919 75.8222 85.7625 75.8182 89.7331C75.8178 90.0809 75.7815 90.4286 75.746 91.0577C74.891 89.7111 74.2502 88.6122 73.5194 87.5768C72.8527 86.6324 71.7392 86.2784 70.7791 86.6385C69.8165 86.9996 69.2035 87.7414 69.237 88.7527C69.2583 89.3979 69.55 90.0914 69.8926 90.6594C72.1003 94.3197 74.3472 97.9564 76.5996 101.59C77.4216 102.915 77.872 104.328 77.8099 105.896C77.7953 106.263 77.8077 106.631 77.8077 107H92.5793C93.0174 105.404 93.4365 103.97 93.801 102.522C94.1421 101.167 94.6659 99.8023 94.6917 98.434C94.7943 92.9807 94.7373 87.5243 94.7278 82.069C94.7271 81.6249 94.6845 81.1703 94.5827 80.7391Z" fill="#333333"/>
<path d="M100.979 69.967C100.127 67.4758 98.2738 65.7177 95.6083 65.3336C93.5126 65.0317 91.3228 64.9308 89.2275 65.1815C85.7846 65.5934 82.3832 66.3557 78.9665 66.9828C75.4945 67.6201 71.998 68.1801 68.5142 67.2666C66.6073 66.7666 64.7892 65.9282 62.8677 65.2191C61.0092 71.448 59.724 77.894 60.8456 84.5997C61.3967 87.8946 62.8525 90.4518 66.5641 91.2484C65.7 89.1366 65.8643 87.2202 67.1918 85.488C68.5464 83.7202 70.4401 83.1802 72.6458 83.4382C72.6458 81.1925 72.6267 79.0905 72.6503 76.989C72.6837 74.0147 74.3348 71.9204 77.1351 71.187C77.4173 71.113 77.7375 70.8651 77.8752 70.6092C78.9637 68.585 80.5931 67.4241 82.9262 67.4297C85.2198 67.4353 86.8138 68.6022 87.9053 70.5666C88.0504 70.8276 88.3518 71.1101 88.6282 71.1727C90.8981 71.6862 92.2907 73.0792 92.9815 75.2724C93.0713 75.5575 93.4277 75.8655 93.7254 75.9612C96.3024 76.7902 97.8838 78.8867 97.8943 81.6053C97.906 84.6082 97.8972 87.6112 97.8974 90.6141C97.8974 90.979 97.8974 91.3438 97.8974 91.6249C98.8756 91.9095 99.7111 92.1526 100.555 92.3981C100.592 92.3036 100.658 92.1793 100.689 92.0467C101.892 86.8927 102.755 81.6812 102.375 76.3802C102.22 74.2158 101.684 72.0272 100.979 69.967Z" fill="#EE4D0E"/>
<path d="M30.8887 66.2302C26.1739 66.2387 22.3164 70.0704 22.3008 74.7605C22.2853 79.4651 26.2267 83.4162 30.9247 83.4054C35.6693 83.3946 39.4815 79.5225 39.4696 74.7262C39.458 69.9984 35.6435 66.2217 30.8887 66.2302ZM30.8557 78.2378C29.0084 78.1991 27.4422 76.5998 27.4578 74.768C27.4741 72.8541 29.0429 71.3636 31.0057 71.3973C32.9096 71.43 34.3384 72.93 34.311 74.8672C34.2845 76.7394 32.7087 78.2766 30.8557 78.2378Z" fill="#333333"/>
<path d="M91.7233 22.9315C94.4414 22.9218 96.6431 20.7101 96.6494 17.9829C96.6559 15.2059 94.5237 13.0201 91.789 13.0001C88.9966 12.9798 86.7389 15.1726 86.7233 17.9202C86.7078 20.6578 88.9861 22.9412 91.7233 22.9315Z" fill="#333333"/>
<path d="M100.833 35.7029C102.027 32.545 104.105 30.5169 107.211 29.3141C104.083 28.1213 102.039 26.0423 100.805 22.9302C99.601 26.0824 97.5367 28.109 94.4066 29.3313C97.5999 30.5061 99.6027 32.6148 100.833 35.7029Z" fill="#333333"/>
<path d="M10.9261 64.5494C12.5315 64.8476 13.8304 64.3412 14.8615 63.0854C16.8994 60.6033 17.9593 57.7115 18.5779 54.2766C15.9409 55.2734 13.4382 56.006 11.6049 57.9123C10.9566 58.5864 10.5642 59.6142 10.3298 60.5494C10.0835 61.5321 10.1935 62.5998 10.0958 63.6254C10.033 64.2835 10.4089 64.4533 10.9261 64.5494Z" fill="#333333"/>
<path d="M101.204 58.4603C101.258 58.8742 101.793 59.5253 102.142 59.5493C103.812 59.6642 105.494 59.6008 107.237 59.6008V54.9961C105.969 55.1161 104.83 55.134 103.73 55.349C102.013 55.6843 101.002 56.9239 101.204 58.4603Z" fill="#333333"/>
<path d="M68.5952 45.0154C68.3197 45.021 68.0434 44.9869 67.7677 44.9907C62.3518 45.0654 57.0673 45.8901 51.996 47.8473C48.5364 49.1825 45.3297 50.9679 42.5396 53.6057C43.9755 53.6057 45.4114 53.6057 46.8473 53.6057C53.4386 53.6057 60.0299 53.6038 66.6212 53.6092C67.1521 53.6096 67.6539 53.6632 67.7985 52.9441C68.2733 50.5831 68.7739 48.2272 69.2679 45.87C69.3853 45.31 69.2051 45.0033 68.5952 45.0154Z" fill="#333333"/>
<path d="M90.8086 45.6013C86.6009 45.4738 82.3938 45.329 78.1855 45.2265C77.9336 45.2204 77.4819 45.4955 77.4472 45.6958C77.0026 48.265 76.6171 50.8444 76.1886 53.6016C79.0605 53.6016 81.7611 53.4142 84.4233 53.6538C87.1339 53.8977 89.0888 53.0325 90.9539 51.0807C92.185 49.7923 92.8205 48.7087 92.3252 46.9529C92.0774 46.0747 91.7075 45.6286 90.8086 45.6013Z" fill="#333333"/>
</g>
<defs>
<clipPath id="clip0_2602_66870">
<rect width="99.8221" height="94" fill="white" transform="translate(10.0889 13)"/>
</clipPath>
</defs>
</svg>
